<svg width="102" height="87" viewBox="0 0 102 87" fill="none" xmlns="http://www.w3.org/2000/svg">
<g filter="url(#filter0_d_124_2)">
<path fill-rule="evenodd" clip-rule="evenodd" d="M8 4C5.79086 4 4 5.79086 4 7.99999V15.102V48.5306V72.204C4 74.4132 5.79087 76.204 8.00001 76.204H93.1156C95.3247 76.204 97.1156 74.4132 97.1156 72.204V15.102C97.1156 12.8929 95.3247 11.102 93.1156 11.102H46.407C41.9466 11.0999 39.6296 9.304 38.4281 7.51892C37.2427 5.75775 35.4818 4 33.3589 4H8Z" fill="#9266D2"/>
<rect x="4" y="17" width="93.1156" height="65.102" rx="4" fill="#AC7DF1"/>
<path d="M27 71.0426H74C74 71.0426 73.679 64.0956 66.8135 61.7576C59.9479 59.4148 56.5559 59.0938 56.1534 57.6373C55.751 56.1856 55.6695 53.0331 55.6695 53.0331C55.6695 53.0331 57.3655 51.821 57.5284 50.0435C57.6913 48.2661 58.0123 46.9725 58.4962 46.8958C58.9801 46.8144 60.0294 42.2916 59.6269 41.8892L59.2245 41.4867C59.2245 41.4867 60.1108 34.3817 58.822 32.4413C57.5284 30.5057 53.4129 28.4839 50.9887 28.4024C48.5644 28.321 46.5474 28.4839 45.1724 28L46.787 29.375C46.787 29.375 44.4441 31.2339 43.7207 31.4735C42.9925 31.7178 41.7803 34.5445 41.7803 36.1591C41.7803 37.7737 41.9432 41.4915 41.9432 41.4915C41.9432 41.4915 41.0569 41.573 41.2964 42.9432C41.5408 44.3182 42.3457 46.9821 42.8296 47.2216C43.3135 47.4612 43.7159 49.3201 43.7159 50.2927C43.7159 51.2652 45.4934 53.2823 45.4934 53.2823C45.4934 53.2823 45.0909 57.7235 44.0417 58.2889C42.9925 58.8542 32.572 61.5995 30.4735 63.7794C28.375 65.9593 27 71.0474 27 71.0474L27 71.0426Z" fill="#9266D2"/>
</g>
<defs>
<filter id="filter0_d_124_2" x="0" y="0" width="101.115" height="86.1021" filterUnits="userSpaceOnUse" color-interpolation-filters="sRGB">
<feFlood flood-opacity="0" result="BackgroundImageFix"/>
<feColorMatrix in="SourceAlpha" type="matrix" values="0 0 0 0 0 0 0 0 0 0 0 0 0 0 0 0 0 0 127 0" result="hardAlpha"/>
<feOffset/>
<feGaussianBlur stdDeviation="2"/>
<feComposite in2="hardAlpha" operator="out"/>
<feColorMatrix type="matrix" values="0 0 0 0 0 0 0 0 0 0 0 0 0 0 0 0 0 0 0.25 0"/>
<feBlend mode="normal" in2="BackgroundImageFix" result="effect1_dropShadow_124_2"/>
<feBlend mode="normal" in="SourceGraphic" in2="effect1_dropShadow_124_2" result="shape"/>
</filter>
</defs>
</svg>
