<?xml version="1.0" encoding="utf-8"?>
<!-- Generator: Adobe Illustrator 27.4.0, SVG Export Plug-In . SVG Version: 6.00 Build 0)  -->
<svg version="1.1" id="Layer_1" xmlns="http://www.w3.org/2000/svg" xmlns:xlink="http://www.w3.org/1999/xlink" x="0px" y="0px"
	 width="500px" height="500px" viewBox="0 0 500 500" enable-background="new 0 0 500 500" xml:space="preserve">
<g>
	<ellipse transform="matrix(0.7071 -0.7071 0.7071 0.7071 -103.5533 250)" fill="#F2AC4C" cx="250" cy="250" rx="250" ry="250"/>
	<g>
		<path fill="#48493F" d="M397.25,250.003c0,81.321-65.926,147.244-147.248,147.244c-81.321,0-147.251-65.924-147.251-147.244
			c0-81.323,65.93-147.251,147.251-147.251C331.324,102.753,397.25,168.68,397.25,250.003z"/>
		<path fill="#515151" d="M392.982,250.003c0,78.963-64.014,142.979-142.981,142.979c-78.967,0-142.983-64.017-142.983-142.979
			c0-78.964,64.016-142.984,142.983-142.984C328.968,107.019,392.982,171.039,392.982,250.003z"/>
		<path fill="#579E93" d="M309.238,250.003c0,32.714-26.523,59.23-59.237,59.23c-32.715,0-59.235-26.516-59.235-59.23
			c0-32.716,26.52-59.239,59.235-59.239C282.715,190.765,309.238,217.287,309.238,250.003z"/>
		<path fill="#EAEAEA" d="M250.001,195.201c-30.266,0-54.803,24.535-54.803,54.804c0,30.261,24.537,54.797,54.803,54.797
			s54.802-24.536,54.802-54.797C304.803,219.736,280.268,195.201,250.001,195.201z M250.001,301.242
			c-28.297,0-51.239-22.942-51.239-51.237c0-28.301,22.942-51.242,51.239-51.242c28.299,0,51.239,22.942,51.239,51.242
			C301.241,278.299,278.301,301.242,250.001,301.242z"/>
		<path fill="#EAEAEA" d="M258.011,250.003c0,4.421-3.588,8.008-8.009,8.008c-4.424,0-8.009-3.587-8.009-8.008
			c0-4.427,3.585-8.014,8.009-8.014C254.423,241.99,258.011,245.577,258.011,250.003z"/>
	</g>
</g>
</svg>
