<svg width="94" height="79" viewBox="0 0 94 79" fill="none" xmlns="http://www.w3.org/2000/svg">
<path fill-rule="evenodd" clip-rule="evenodd" d="M4 0C1.79086 0 0 1.79086 0 3.99999V11.102V44.5306V68.204C0 70.4132 1.79087 72.204 4.00001 72.204H89.1156C91.3247 72.204 93.1156 70.4132 93.1156 68.204V11.102C93.1156 8.8929 91.3247 7.10204 89.1156 7.10204H42.407C37.9466 7.0999 35.6296 5.304 34.4281 3.51892C33.2427 1.75775 31.4818 0 29.3589 0H4Z" fill="#9266D2"/>
<rect y="13.4149" width="93.1156" height="65.102" rx="4" fill="#AC7DF1"/>
<path d="M63.2022 31.1525V55.6169H63.1822C63.1721 56.5291 62.9767 57.4463 62.5607 58.3235C61.5883 60.3584 59.6285 61.9924 57.1826 62.8043C56.115 63.1602 55.0224 63.3406 53.9247 63.3406C50.5966 63.3406 47.8149 61.6465 46.8375 59.0201C46.2661 57.4814 46.3613 55.7723 47.1132 54.1984C48.0855 52.1635 50.0453 50.5245 52.4862 49.7126C53.5538 49.3567 54.6515 49.1763 55.7441 49.1763C57.6287 49.1763 59.3278 49.7326 60.631 50.6849V35.052L39.1839 38.8362C39.0336 38.8612 38.8832 38.8712 38.7378 38.8712V59.4763H38.7178C38.7078 60.3885 38.5123 61.3057 38.0963 62.1828C37.1239 64.2178 35.1642 65.8517 32.7182 66.6637C31.6506 67.0196 30.558 67.2 29.4603 67.2C26.1322 67.2 23.3455 65.5059 22.3681 62.8795C21.7967 61.3408 21.892 59.6316 22.6438 58.0578C23.6161 56.0179 25.5759 54.3839 28.0218 53.5719C29.0894 53.2161 30.1871 53.0356 31.2797 53.0356C33.1643 53.0356 34.8584 53.592 36.1666 54.5443V32.4406C36.1666 31.1926 37.0638 30.12 38.2918 29.9045L60.1749 26.0401C60.3202 26.01 60.4756 26 60.621 26C61.2224 26 61.8088 26.2105 62.275 26.6015C62.8564 27.0876 63.1972 27.8144 63.1972 28.5712V31.1475L63.2022 31.1525Z" fill="#9266D2"/>
</svg>
