<svg width="102" height="87" viewBox="0 0 102 87" fill="none" xmlns="http://www.w3.org/2000/svg">
<g filter="url(#filter0_d_103_187)">
<path fill-rule="evenodd" clip-rule="evenodd" d="M8 4C5.79086 4 4 5.79086 4 7.99999V15.102V48.5306V72.204C4 74.4132 5.79087 76.204 8.00001 76.204H93.1156C95.3247 76.204 97.1156 74.4132 97.1156 72.204V15.102C97.1156 12.8929 95.3247 11.102 93.1156 11.102H46.407C41.9466 11.0999 39.6296 9.304 38.4281 7.51892C37.2427 5.75775 35.4818 4 33.3589 4H8Z" fill="#9266D2"/>
<rect x="4" y="17.4149" width="93.1156" height="65.102" rx="4" fill="#AC7DF1"/>
<path d="M67.2022 35.1525V59.6169H67.1822C67.1721 60.5291 66.9767 61.4463 66.5607 62.3235C65.5883 64.3584 63.6285 65.9924 61.1826 66.8043C60.115 67.1602 59.0224 67.3406 57.9247 67.3406C54.5966 67.3406 51.8149 65.6465 50.8375 63.0201C50.2661 61.4814 50.3613 59.7723 51.1132 58.1984C52.0855 56.1635 54.0453 54.5245 56.4862 53.7126C57.5538 53.3567 58.6515 53.1763 59.7441 53.1763C61.6287 53.1763 63.3278 53.7326 64.631 54.6849V39.052L43.1839 42.8362C43.0336 42.8612 42.8832 42.8712 42.7378 42.8712V63.4763H42.7178C42.7078 64.3885 42.5123 65.3057 42.0963 66.1828C41.1239 68.2178 39.1642 69.8517 36.7182 70.6637C35.6506 71.0196 34.558 71.2 33.4603 71.2C30.1322 71.2 27.3455 69.5059 26.3681 66.8795C25.7967 65.3408 25.892 63.6316 26.6438 62.0578C27.6161 60.0179 29.5759 58.3839 32.0218 57.5719C33.0894 57.2161 34.1871 57.0356 35.2797 57.0356C37.1643 57.0356 38.8584 57.592 40.1666 58.5443V36.4406C40.1666 35.1926 41.0638 34.12 42.2918 33.9045L64.1749 30.0401C64.3202 30.01 64.4756 30 64.621 30C65.2224 30 65.8088 30.2105 66.275 30.6015C66.8564 31.0876 67.1972 31.8144 67.1972 32.5712V35.1475L67.2022 35.1525Z" fill="#9266D2"/>
</g>
<defs>
<filter id="filter0_d_103_187" x="0" y="0" width="101.115" height="86.5168" filterUnits="userSpaceOnUse" color-interpolation-filters="sRGB">
<feFlood flood-opacity="0" result="BackgroundImageFix"/>
<feColorMatrix in="SourceAlpha" type="matrix" values="0 0 0 0 0 0 0 0 0 0 0 0 0 0 0 0 0 0 127 0" result="hardAlpha"/>
<feOffset/>
<feGaussianBlur stdDeviation="2"/>
<feComposite in2="hardAlpha" operator="out"/>
<feColorMatrix type="matrix" values="0 0 0 0 0 0 0 0 0 0 0 0 0 0 0 0 0 0 0.25 0"/>
<feBlend mode="normal" in2="BackgroundImageFix" result="effect1_dropShadow_103_187"/>
<feBlend mode="normal" in="SourceGraphic" in2="effect1_dropShadow_103_187" result="shape"/>
</filter>
</defs>
</svg>
