<svg width="94" height="79" viewBox="0 0 94 79" fill="none" xmlns="http://www.w3.org/2000/svg">
<path fill-rule="evenodd" clip-rule="evenodd" d="M4 0C1.79086 0 0 1.79086 0 3.99999V11.102V44.5306V68.204C0 70.4132 1.79087 72.204 4.00001 72.204H89.1156C91.3247 72.204 93.1156 70.4132 93.1156 68.204V11.102C93.1156 8.8929 91.3247 7.10204 89.1156 7.10204H42.407C37.9466 7.0999 35.6296 5.304 34.4281 3.51892C33.2427 1.75775 31.4818 0 29.3589 0H4Z" fill="#9266D2"/>
<rect y="13" width="93.1156" height="65.102" rx="4" fill="#AC7DF1"/>
<path d="M23 67.0426H70C70 67.0426 69.679 60.0956 62.8135 57.7576C55.9479 55.4148 52.5559 55.0938 52.1534 53.6373C51.751 52.1856 51.6695 49.0331 51.6695 49.0331C51.6695 49.0331 53.3655 47.821 53.5284 46.0435C53.6913 44.2661 54.0123 42.9725 54.4962 42.8958C54.9801 42.8144 56.0294 38.2916 55.6269 37.8892L55.2245 37.4867C55.2245 37.4867 56.1108 30.3817 54.822 28.4413C53.5284 26.5057 49.4129 24.4839 46.9887 24.4024C44.5644 24.321 42.5474 24.4839 41.1724 24L42.787 25.375C42.787 25.375 40.4441 27.2339 39.7207 27.4735C38.9925 27.7178 37.7803 30.5445 37.7803 32.1591C37.7803 33.7737 37.9432 37.4915 37.9432 37.4915C37.9432 37.4915 37.0569 37.573 37.2964 38.9432C37.5408 40.3182 38.3457 42.9821 38.8296 43.2216C39.3135 43.4612 39.7159 45.3201 39.7159 46.2927C39.7159 47.2652 41.4934 49.2823 41.4934 49.2823C41.4934 49.2823 41.0909 53.7235 40.0417 54.2889C38.9925 54.8542 28.572 57.5995 26.4735 59.7794C24.375 61.9593 23 67.0474 23 67.0474L23 67.0426Z" fill="#9266D2"/>
</svg>
